<?xml version="1.0" encoding="UTF-8" standalone="no"?>
<!DOCTYPE svg PUBLIC "-//W3C//DTD SVG 1.1//EN" "http://www.w3.org/Graphics/SVG/1.1/DTD/svg11.dtd">
<!-- Generated by graphviz version 2.40.1 (20161225.0304)
 -->
<!-- Title: %0 Pages: 1 -->
<svg width="551pt" height="418pt" viewBox="0.00 0.00 550.84 418.40" xmlns="http://www.w3.org/2000/svg" xmlns:xlink="http://www.w3.org/1999/xlink">
<g id="graph0" class="graph" transform="scale(1 1) rotate(0) translate(4 414.4)">
<title>%0</title>
<polygon fill="#ffffff" stroke="transparent" points="-4,4 -4,-414.4 546.8379,-414.4 546.8379,4 -4,4"/>
<!-- mel -->
<g id="node1" class="node">
<title>mel</title>
<ellipse fill="none" stroke="#000000" cx="294.7137" cy="-392.4" rx="47.5499" ry="18"/>
<text text-anchor="middle" x="294.7137" y="-388.2" font-family="Times,serif" font-size="14.00" fill="#000000">Mel (NP)</text>
</g>
<!-- doc -->
<g id="node2" class="node">
<title>doc</title>
<ellipse fill="none" stroke="#000000" cx="209.7137" cy="-303.6" rx="27.2467" ry="18"/>
<text text-anchor="middle" x="209.7137" y="-299.4" font-family="Times,serif" font-size="14.00" fill="#000000">Doc</text>
</g>
<!-- mel&#45;&gt;doc -->
<g id="edge6" class="edge">
<title>mel-&gt;doc</title>
<path fill="none" stroke="#000000" d="M278.3249,-375.2785C265.0145,-361.3731 246.1255,-341.6396 231.5354,-326.3972"/>
<polygon fill="#000000" stroke="#000000" points="233.7931,-323.6943 224.3499,-318.8905 228.7364,-328.5347 233.7931,-323.6943"/>
<text text-anchor="middle" x="289.2842" y="-343.8" font-family="Times,serif" font-size="14.00" fill="#000000">Works for</text>
</g>
<!-- hope -->
<g id="node5" class="node">
<title>hope</title>
<ellipse fill="none" stroke="#000000" cx="209.7137" cy="-214.8" rx="66.5758" ry="18"/>
<text text-anchor="middle" x="209.7137" y="-210.6" font-family="Times,serif" font-size="14.00" fill="#000000">Hope (Mayor)</text>
</g>
<!-- doc&#45;&gt;hope -->
<g id="edge3" class="edge">
<title>doc-&gt;hope</title>
<path fill="none" stroke="#000000" d="M209.7137,-285.2006C209.7137,-273.0949 209.7137,-257.0076 209.7137,-243.2674"/>
<polygon fill="#000000" stroke="#000000" points="213.2138,-242.872 209.7137,-232.872 206.2138,-242.8721 213.2138,-242.872"/>
<text text-anchor="middle" x="232.2565" y="-255" font-family="Times,serif" font-size="14.00" fill="#000000">Married</text>
</g>
<!-- charmom -->
<g id="node6" class="node">
<title>charmom</title>
<ellipse fill="none" stroke="#000000" cx="83.7137" cy="-160.8" rx="83.928" ry="18"/>
<text text-anchor="middle" x="83.7137" y="-156.6" font-family="Times,serif" font-size="14.00" fill="#000000">Charmaine's Mom</text>
</g>
<!-- doc&#45;&gt;charmom -->
<g id="edge7" class="edge">
<title>doc-&gt;charmom</title>
<path fill="none" stroke="#000000" d="M174.5183,-294.0598C159.2235,-288.441 142.0623,-279.9506 129.9023,-267.6 108.4202,-245.7812 96.1846,-212.3604 89.7769,-188.7245"/>
<polygon fill="#000000" stroke="#000000" points="173.6341,-297.4556 184.2284,-297.3492 175.8801,-290.8257 173.6341,-297.4556"/>
<polygon fill="#000000" stroke="#000000" points="93.1485,-187.7807 87.304,-178.9436 86.362,-189.4965 93.1485,-187.7807"/>
<text text-anchor="middle" x="168.6194" y="-255" font-family="Times,serif" font-size="14.00" fill="#000000">slept together</text>
</g>
<!-- jack -->
<g id="node3" class="node">
<title>jack</title>
<ellipse fill="none" stroke="#000000" cx="399.7137" cy="-106.8" rx="64.2651" ry="18"/>
<text text-anchor="middle" x="399.7137" y="-102.6" font-family="Times,serif" font-size="14.00" fill="#000000">Jack (Tavern)</text>
</g>
<!-- jack&#45;&gt;mel -->
<g id="edge5" class="edge">
<title>jack-&gt;mel</title>
<path fill="none" stroke="#000000" d="M395.9435,-124.9786C392.7832,-139.6141 387.9559,-160.6621 382.7137,-178.8 359.5406,-258.9779 360.7835,-282.6502 321.7137,-356.4 319.8336,-359.9489 317.6199,-363.5241 315.2823,-366.972"/>
<polygon fill="#000000" stroke="#000000" points="312.3609,-365.039 309.3361,-375.1928 318.0328,-369.1415 312.3609,-365.039"/>
<text text-anchor="middle" x="380.8196" y="-255" font-family="Times,serif" font-size="14.00" fill="#000000">Loves</text>
</g>
<!-- char -->
<g id="node4" class="node">
<title>char</title>
<ellipse fill="none" stroke="#000000" cx="198.7137" cy="-18" rx="53.309" ry="18"/>
<text text-anchor="middle" x="198.7137" y="-13.8" font-family="Times,serif" font-size="14.00" fill="#000000">Charmaine</text>
</g>
<!-- jack&#45;&gt;char -->
<g id="edge1" class="edge">
<title>jack-&gt;char</title>
<path fill="none" stroke="#000000" d="M350.2664,-95.0653C340.8034,-92.9114 330.9639,-90.7345 321.7137,-88.8 279.2626,-79.9221 260.5645,-96.7387 225.8069,-70.8 217.411,-64.5344 211.4105,-54.9164 207.227,-45.5976"/>
<polygon fill="#000000" stroke="#000000" points="210.4251,-44.1668 203.5008,-36.1477 203.9131,-46.7345 210.4251,-44.1668"/>
<text text-anchor="middle" x="301.1671" y="-58.2" font-family="Times,serif" font-size="14.00" fill="#000000">Was Friends with Benefits</text>
</g>
<!-- char&#45;&gt;jack -->
<g id="edge2" class="edge">
<title>char-&gt;jack</title>
<path fill="none" stroke="#000000" d="M249.9693,-23.3688C294.7963,-28.9665 355.6345,-39.0337 374.7137,-54 382.8278,-60.3649 388.4402,-70.0033 392.2581,-79.3107"/>
<polygon fill="#000000" stroke="#000000" points="388.964,-80.4934 395.6169,-88.739 395.558,-78.1443 388.964,-80.4934"/>
<text text-anchor="middle" x="465.2758" y="-58.2" font-family="Times,serif" font-size="14.00" fill="#000000">Pregnant with Jack's Twins</text>
</g>
<!-- hope&#45;&gt;jack -->
<g id="edge4" class="edge">
<title>hope-&gt;jack</title>
<path fill="none" stroke="#000000" d="M208.6489,-196.7754C208.7267,-180.3759 211.6382,-156.6747 226.0355,-142.8 257.192,-112.7745 279.3623,-133.6666 321.7137,-124.8 327.7839,-123.5292 334.1079,-122.1544 340.4129,-120.7506"/>
<polygon fill="#000000" stroke="#000000" points="341.2791,-124.1433 350.2657,-118.5315 339.741,-117.3143 341.2791,-124.1433"/>
<text text-anchor="middle" x="305.0528" y="-156.6" font-family="Times,serif" font-size="14.00" fill="#000000">Close to (basically adopted)</text>
</g>
<!-- hope&#45;&gt;char -->
<g id="edge9" class="edge">
<title>hope-&gt;char</title>
<path fill="none" stroke="#000000" d="M205.0124,-196.6861C200.5838,-178.6224 194.2687,-150.0097 191.7817,-124.8 190.2109,-108.8773 191.0012,-104.781 191.7817,-88.8 192.4689,-74.7295 193.9199,-59.1422 195.3176,-46.1829"/>
<polygon fill="#000000" stroke="#000000" points="198.8225,-46.3346 196.4612,-36.0063 191.8663,-45.5529 198.8225,-46.3346"/>
<text text-anchor="middle" x="260.1797" y="-102.6" font-family="Times,serif" font-size="14.00" fill="#000000">doesn't like but housing</text>
</g>
<!-- charmom&#45;&gt;char -->
<g id="edge8" class="edge">
<title>charmom-&gt;char</title>
<path fill="none" stroke="#000000" d="M85.8996,-142.5666C88.4666,-127.1259 93.8962,-104.9841 105.1127,-88.8 119.5055,-68.033 141.9177,-50.7722 161.2028,-38.4936"/>
<polygon fill="#000000" stroke="#000000" points="163.1163,-41.4259 169.8035,-33.208 159.4512,-35.462 163.1163,-41.4259"/>
<text text-anchor="middle" x="133.5142" y="-102.6" font-family="Times,serif" font-size="14.00" fill="#000000">Mother to</text>
</g>
</g>
</svg>